<?xml version="1.0" encoding="utf-8"?>
<!-- Generator: Adobe Illustrator 23.0.1, SVG Export Plug-In . SVG Version: 6.00 Build 0)  -->
<svg version="1.1"
	 id="svg5820" inkscape:version="0.92.3 (2405546, 2018-03-11)" sodipodi:docname="MetroLisboa-linha-azul(!).svg" xmlns:cc="http://creativecommons.org/ns#" xmlns:dc="http://purl.org/dc/elements/1.1/" xmlns:inkscape="http://www.inkscape.org/namespaces/inkscape" xmlns:rdf="http://www.w3.org/1999/02/22-rdf-syntax-ns#" xmlns:sodipodi="http://sodipodi.sourceforge.net/DTD/sodipodi-0.dtd" xmlns:svg="http://www.w3.org/2000/svg"
	 xmlns="http://www.w3.org/2000/svg" xmlns:xlink="http://www.w3.org/1999/xlink" x="0px" y="0px" viewBox="0 0 425.6 250"
	 enable-background="new 0 0 425.6 250" xml:space="preserve">
<path fill="#2F7DE1" d="M388.3,55.8c-18.6,0-36.7-3.5-54.1-8.9c-4.2-1.2-12.5-6.1-17.3-6.1c-7.9,0-15,6.1-21.7,14.4
	c-4.2,5.4-15.5,18-23.4,25.3c-1.8,1.9-6.6,3.6-6.6,6c0,3,9.7,3.6,12,3.6c12.6,2.4,75.2,16.3,75.2,30c0,15-52.4,21.6-63.7,21.6
	c-20.4,0-37.9-19.7-42.6-24.7c-18.7,9-33.1,12.7-53.6,12.7c-19.8,0-38.5-3.1-57.1-9.1c-6-1.8-11.9-3-18.6-3
	c-7.2,0-13.8,3.6-20.4,3.6c-2.5,0-4.2-1.1-4.2-3.6c0-8.4,12.6-12,18.6-13.8c13.9-4.8,9-18.7,37.3-22.3c-18.6-6.5-36-17.4-51.1-30
	c-13.8,4.8-28.2,7.7-42.6,7.7c-12.6,0-25.8-2.3-37.2-7.7C10.8,48.7,0,40.8,0,33.6C0,24.6,12.1,27,16.9,27c15.6,0,31.2-3.7,45.6-8.4
	c10.3-3,19.9-6.1,30.7-6.1c24.1,0,38.5,11.5,56.5,25.3c10.2,7.9,20.4,15.6,28.8,22.8c5.4,4.3,19.3,14.5,25.8,14.5
	c9.6,0,63.1-48.1,67.3-51.8C287.3,10.9,301.2,0,322.2,0c17.9,0,36,10.3,52.2,17.4c11.4,4.8,23.5,8.3,36.1,10.8
	c7.3,1.2,15.1,2.5,15.1,10.9C425.6,53.5,397.9,55.8,388.3,55.8 M362.4,209.8c-17.5,17.4-46.9,33-72.1,33c-14.4,0-29.4-4.8-36.7-18.6
	c-1.2-2.5-2.4-5.4-6.1-5.4c-3.5,0-30.6,15.5-37.8,19.2c-15,7.3-32.5,12-48.7,12c-13.3,0-25.9-4.2-36-13.2c-1.8-1.3-3.6-3.6-5.9-3.6
	c-3.1,0-8.5,2.3-10.9,2.8c-8.4,2.5-15,4.9-24.6,4.9c-10.4,0-20.6-2.4-29.5-6.7c-3.6-1.8-15.6-8.3-15.6-12.5c0-1.9,1.9-2.4,3-2.4
	c1.2,0,11.4,4.8,23.5,4.8c10.1,0,23.4-2.5,33.6-8.5c13.8-8.4,18.7-12.5,34.2-26.3c1.3-1.3,3.1-3.1,4.9-3.1c2.4,0,4.8,1.1,4.8,3.6
	c0,2.4-2.3,7.3-2.3,12.6c0,17.4,28.8,19.3,40.8,19.3c30.7,0,63.6-16.7,84.7-39c1.8-1.3,3-3.1,5.4-3.1c1.8,0,4.1,1.8,4.1,4.3
	c0,2.4-1.1,4.7-1.1,7.2c0,17.9,22.9,23.3,36.1,23.3c17.3,0,37.8-8.3,52.2-16.1c1.2-0.5,2.4-1.2,3.6-1.2c1.3,0,2.5,1.2,2.5,2.4
	C368.5,203.7,364.8,207.3,362.4,209.8 M388.3,32.5c-21-6-43.8-22.8-63.7-22.8c-17.4,0-30.6,8.4-42.6,20.2c3.6-2.3,7.2-4.1,11.4-4.1
	c10.3,0,23.6,6.7,32.6,10.3c16.8,6,34.8,10.8,52.2,10.8c4.2,0,30.1,0,30.1-7.2C408.2,36.1,391.3,33,388.3,32.5 M325.2,114.8
	c-12.7-6.1-25.9-10.9-40.3-10.9c-11.4,0-20.4,3.6-30,9c12.6,12.1,21.7,18.1,40.2,18.1c6.7,0,34.8-2.4,34.8-12.1
	C330,117.1,327,116.1,325.2,114.8 M175.6,68.5c-4.2-3-15.1-12.7-29.4-22.9C131,34.2,114.8,19.8,95.1,19.8c-9.1,0-13.9,1.2-21.8,4.8
	c21.8,7.8,28.9,15,46.9,30.1c12.6,10.8,42.1,27.7,58.9,27.7c1.2,0,7.9,0,7.9-2.4C187,78.7,182.2,73.9,175.6,68.5 M322.8,221.8
	c-0.5,0-3,0.6-3.6,0.6c-3.6,0.6-7.9,0.6-11.4,0.6c-13.9,0-21.7-2.4-31.9-10.8c-1.1-1.3-2.4-1.8-4.8-1.8c-3.6,0-6.6,2.9-6.6,6.7
	c0,12.5,20.4,16.1,29.4,16.1c4.9,0,30.6-4.9,30.6-10.3C324.6,221.8,324,221.8,322.8,221.8 M143.1,91.9c-3,0-6.7,1.8-6.7,4.8
	c0,3,2.5,6.1,5.5,6.1c3.6,0,5.9-2.4,5.9-6.1C147.8,94.4,145.5,91.9,143.1,91.9 M210.4,222.4c-1.1,0-1.1,0-2.3,0.6
	c-10.8,3.1-22.8,5.4-34.9,5.4c-8.4,0-23.4-2.4-30.7-7.8c-2.3-1.1-3.5-2.3-6.1-2.3c-4.7,0-6.6,3.5-6.6,7.8
	c0,10.8,28.8,13.8,36.6,13.8c12.1,0,28.3-4.2,39.1-10.8c1.3-0.6,6.1-3,6.6-4.8C211.7,222.9,211.7,222.4,210.4,222.4"/>
</svg>
