<?xml version="1.0" encoding="utf-8"?>
<!-- Generator: Adobe Illustrator 23.0.1, SVG Export Plug-In . SVG Version: 6.00 Build 0)  -->
<svg version="1.1"
	 id="Layer_1" inkscape:version="0.92.3 (2405546, 2018-03-11)" sodipodi:docname="MetroLisboa-linha-verde(!).svg" xmlns:cc="http://creativecommons.org/ns#" xmlns:dc="http://purl.org/dc/elements/1.1/" xmlns:illustrator="http://ns.adobe.com/illustrator/1.0/" xmlns:inkscape="http://www.inkscape.org/namespaces/inkscape" xmlns:pdf="http://ns.adobe.com/pdf/1.3/" xmlns:rdf="http://www.w3.org/1999/02/22-rdf-syntax-ns#" xmlns:sodipodi="http://sodipodi.sourceforge.net/DTD/sodipodi-0.dtd" xmlns:stDim="http://ns.adobe.com/xap/1.0/sType/Dimensions#" xmlns:stEvt="http://ns.adobe.com/xap/1.0/sType/ResourceEvent#" xmlns:stRef="http://ns.adobe.com/xap/1.0/sType/ResourceRef#" xmlns:svg="http://www.w3.org/2000/svg" xmlns:xmp="http://ns.adobe.com/xap/1.0/" xmlns:xmpG="http://ns.adobe.com/xap/1.0/g/" xmlns:xmpGImg="http://ns.adobe.com/xap/1.0/g/img/" xmlns:xmpMM="http://ns.adobe.com/xap/1.0/mm/" xmlns:xmpTPg="http://ns.adobe.com/xap/1.0/t/pg/"
	 xmlns="http://www.w3.org/2000/svg" xmlns:xlink="http://www.w3.org/1999/xlink" x="0px" y="0px" viewBox="0 0 183.2 250"
	 enable-background="new 0 0 183.2 250" xml:space="preserve">
<path fill="#00A19B" d="M98.9,213c-18.7,0-37.8-4.1-56.1-8.8c-2.1-0.8-4.1-1.2-6.2-2.8c-0.4-0.5-1.2-1.7-2.5-4.2
	c-4.6-10.4-10-22.4-15-32.4c-1.6-2.9-10.8-19.1-10.8-20.3c0-1.7,1.7-3.3,3.4-3.3c1.3,0,9.1,3.7,10.8,4.1C32,149.1,42,151.1,52,154
	c6.2,1.7,6.6,8.7,12.4,12.5c8.3,5.1,24.5,7.5,34.5,7.5c12.1,0,24.1-0.4,36.2-3.8c-3.8-1.6-30-11.6-35.8-11.6c-1.6,0-2.5,0.8-2.5,2.4
	v8.8c0,1.7-0.4,2.1-2.1,2.1c-1.2,0-3.7-0.4-3.7-2.5v-1.6c0-3-2.1-4.3-3.7-5.5c-14.2-10-24.1-12.5-41.2-12.5h-3.8
	c-1.6,0-3.3-0.8-3.3-2.5c0-1.2,0.9-2.1,0.9-3.3c0-2.1-5.4-2.5-10.9-2.8c-5,0-10.4,0-10.4-1.7v-0.8c3.2-7.1,4.1-15.5,4.1-22.9
	c0-14.6-3.4-27.4-13.3-38.7c0-0.4-1.7-2-1.7-2.5c0-0.7,0.9-1.5,1.7-1.5c2.9,0,19.5,7.8,29.9,13.2v-9.2c0-0.8,0.5-2,1.7-2
	c3.3,0,2.9,11.6,2.9,13.7c4.2,2.4,10.8,7.3,12.5,8.7c1.2-5.9,1.6-12.1,1.6-17.9c0-25.3-11.2-48.2-27-67.3c-2.1-2-7-7-7-10.4
	c0-0.9,0.8-2,2.1-2c1.7,0,2.9,0.8,5,2c21.6,13.3,41.2,30.4,57.8,49.1c0-0.9,0.4-7.9,0.4-12.1c0-1.2,0.4-3.3,2.1-3.3
	c2.1,0,2.4,0.3,2.9,2.4c0.4,2.1,0,5,0,7.9c0.4,3.7,0,7.4,0,8.3c0,2.9,0.8,3.7,2.9,6.2c23.7,27.9,46.1,63.2,59,96.8
	c2.5-3.3,4.6-7.1,4.6-11.2c0-8.3-8.3-9.2-8.3-13c0-2.4,2.5-3.6,4.6-3.6c14.5,0,23.2,17,23.2,29.9C180.2,197.2,129.2,213,98.9,213
	 M170.3,210.2c-7.5,2.5-16.3,7-25,13.3c-13.7,9.9-27.8,26.9-49.4,26.5c-14.1,0-25.7-5-42.4-20.7c-9.1-8.3-16.2-11.7-29.1-11.7
	c-13.3,0-19.1,8.8-22,8.8c-1.3,0-2.5-0.8-2.5-2.1c0-1.3,1.2-3.7,2-5.4c5.5-7.4,16.2-12,25.3-12c24.1,0,44,19.9,72.7,19.9
	c16.2,0,25.4-5.8,39.9-12.9c9.9-5,18.3-10.9,30.4-11.2c3.3,0,10.8,1.6,12.4,4.1C185.3,211,176.5,208.1,170.3,210.2 M144.1,144.9
	c-18.3-38.6-41.9-72.3-71.4-102.6C68.5,37.8,49.4,19.1,44,19.1c-0.9,0-2.1,0.4-2.1,2.1c0,1.2,5.8,8.3,6.7,9.1
	c12,17,22.8,39.9,22.8,61c0,18.3-7,32.5-18.3,46.9c-0.4,0.9-2.9,3.4-4.1,4.6c-0.4,0.5-0.8,1.2-0.8,1.2c0,0.9,0.8,1.3,1.2,1.3
	c15.8,0,36.6,3.8,51.9,7c15.8,3.8,34.1,9.1,49,15.5c0.4,0.3,1.3,0.8,1.6,0.8c0.8,0,1.7-0.8,1.7-1.6
	C153.7,163.5,145.8,148.3,144.1,144.9 M35.7,90c-3.7-2-12.5-6.5-14.1-6.5c-0.9,0-1.3,0.4-1.3,1.2c0,0.5,1.3,2.1,2.5,3.8
	c2.1,3.7,4.5,8.3,6.2,12.8c2.1,5.4,2.9,10.4,2.9,15.4c0,4.6-0.9,10.8-2.9,15c-0.4,0.8-2.1,2.9-2.1,3.7c0,0.8,1.3,1.2,2.1,1.2
	c5.4,0,10.4,0,15.8,0.8c5.4-10,8.7-21.5,10.8-32.8C52.8,101.7,40.7,92.6,35.7,90 M141.7,177.3c-4.5,0-13.7,1.7-19.9,2.5
	c-5.4,0.4-14.6,1.3-22.1,1.3c-20.3,0-37.7-5-57.7-8.3c-1.3,0-2-0.5-3.3-0.5c-0.9,0-1.3,0.5-1.3,1.7c0,0.8,1.3,2.1,2.1,2.9
	c4.1,3.3,11.2,7,16.2,9.2c15.8,6.6,31.2,10.4,47.8,10.4c7.9,0,44.8-3,44.8-14.6C148.3,178.2,145,177.3,141.7,177.3 M128.8,226.3
	c-0.8,0-4.2,2.2-5,2.2c-4.9,2.4-8.7,4.2-16.1,4.9c-5.4,0.9-18.3,0.9-27.4-2.5c-7.9-2.8-12.9-5.8-15-6.2c-3.3-0.8-4.5,0.4-3.3,2.4
	c2.5,4.2,12.4,10.5,20.3,13.8c5.5,1.7,11.6,2.9,20,2c10.8-1.2,17.8-6.6,24.1-11.2c2.1-1.6,3.7-3.2,3.7-4.6
	C130.5,226.8,129.6,225.6,128.8,226.3"/>
</svg>
