<?xml version="1.0" encoding="utf-8"?>
<!-- Generator: Adobe Illustrator 23.0.1, SVG Export Plug-In . SVG Version: 6.00 Build 0)  -->
<svg version="1.1"
	 id="svg5147" inkscape:version="0.92.3 (2405546, 2018-03-11)" sodipodi:docname="MetroLisboa-linha-vermelha(!).svg" xmlns:cc="http://creativecommons.org/ns#" xmlns:dc="http://purl.org/dc/elements/1.1/" xmlns:inkscape="http://www.inkscape.org/namespaces/inkscape" xmlns:rdf="http://www.w3.org/1999/02/22-rdf-syntax-ns#" xmlns:sodipodi="http://sodipodi.sourceforge.net/DTD/sodipodi-0.dtd" xmlns:svg="http://www.w3.org/2000/svg"
	 xmlns="http://www.w3.org/2000/svg" xmlns:xlink="http://www.w3.org/1999/xlink" x="0px" y="0px" viewBox="0 0 338.5 250"
	 enable-background="new 0 0 338.5 250" xml:space="preserve">
<path fill="#EA1D76" d="M237.8,27.9c0.5,2.9-1.7,3.8-2.8,4.4c-5.5,1.6-15.4,6-19.8,10c-0.6,0.5-1.1,1-2.8,1c-1.1,0-2.1-1-1.7-2.3
	c0.6-4.3,1.2-11.4,0.6-15.3c-0.6-0.5,0-1,1.7-2.2c2.2-1.2,6.6-2.7,7.7-3.3c8.8-4.4,14.3-8.7,21-15.3c1.1-1.2,2.7-3.4,4.4-3.9
	c2.2-1.6,3.9-1,3.9,1.1C249.9,3.7,237.3,19.6,237.8,27.9 M241.7,69.6c-8.8,0-19.3-4.9-19.9-12.5c-0.5-3.4,1.1-5,2.7-7.7
	c-3.3,0.6-6.1,1.6-8.8,3.2c-7.2,2.8-12.7,6.6-19.3,13.2c-0.6,1.1-1.7,2.3-3.3,2.3c-2.2,0-5-1.6-5-3.3c0-2.2,3.3-5.1,6.1-9.3
	c1.6-2.2,3.3-6.6,3.3-9.4c-0.5-3.8-1.7-6.6-5-8.7c-1.6,9.8-10.5,18.6-23.1,19.3c-7.1,0-14.3-5-14.9-11.8c-1-10.4,15.5-18.6,27-19.1
	c10.5,0,22,4.4,22.6,13.7c0.5,5.4-2.8,16.1-5.5,17.7c12.7-10,26.5-18.2,44.7-18.8c9.9,0,19.9,3.9,20.3,12.6
	C264.8,61.5,254.3,69.2,241.7,69.6 M332.4,158.3c0,1-1.6,7.8-3.3,7.8c-3.8,0-3.3-8.9-11.5-8.9c-3.3,0-6.6,1.7-6.1,3.4
	c0,2.7,2.8,4.9,4.9,6.6c1.2,0.5,1.2,0.5,1.2,1.1h-3.3c-8.8,0.6-35.8,0-39.6,0c-1.1,0-1.7,0-1.7-0.6c0,0,0-0.5,1-1.2
	c4.5-2.1,15.5-6.5,14.9-9.9c0-1.6-2.2-2.2-5.5-2.2c-5.5,0-9.9,3.3-12.7,3.3c-0.6,0-1.1,0-1.1-0.6c0-1.1,9.9-15.9,10.5-17.5
	c0.5-0.5,1-1.1,1.6-1.1c0.6,0,1.1,0.6,1.1,1.6c0,0.6,0.6,1.2,0.6,1.2c0.6,2.7,6,6.1,11,6.1c4.4,0,6.6-3.4,6.6-5.6
	c-0.6-2.2-1.7-3.8-3.3-4.9c-0.6,0-3.8-2.2-3.8-2.2c0-1.2,2.7-1.2,4.4-1.2c7.6-0.5,25.2-0.5,29.1-0.5c1.1,0,1.1,0,1.1,0.5
	c0,1.2-13.2,5-12.6,10.5c0,1.1,2.3,2.2,3.9,2.2c5.5,0,17.6-8.2,17.6-8.2c0.6,0,1.1,1.1,1.1,1.1L332.4,158.3z M256.5,135.3
	c-4.4-0.6-15.4-1.2-23.1-1.2c-2.7,0-5.5,0-6.6-3.3c-4.4-16-14.8-27.5-30.8-32c-1.6-0.4-4.9-1.6-4.9-3.3c0-1.6,0.5-2.7,1.1-3.2
	c1.1-3.4,3.3-6.1,5-8.9c0.5-1.7,1-2.3,3.2-2.3c2.8,0,11,2.3,14.3,3.3c19.3,6.1,36.9,21.6,43.5,41.3c1.1,1.6,1.6,4.4,1.6,6.1
	C259.8,134.1,258.7,135.9,256.5,135.3 M156.3,81.2c-3.2,3.3-8.8,7.8-12,10.5c-1.7,1.2-3.3,2.2-3.9,2.2h-5.5
	c-25.9,0-54,11.6-73.8,28.1c-1.1,1.2-2.7,2.2-3.8,2.7c-2.7,1.7-12.1,1.7-19.9,1.7h-9.9c-0.5,0-1.1-0.6-1.1-1.1c0-0.6,0-1,0.6-1
	C37.4,111.5,66.1,95.5,82.6,89c19.2-7.8,42.4-13.2,62.7-13.2c3.3,0,7.7-0.5,11,1.1c0.5,0,1.6,1.1,1.6,1.6
	C157.9,79.6,157.4,80.2,156.3,81.2 M254.3,151.1c-7.8,0.6-16,2.3-23.7,3.4l-30.8,5.5c-8.8,1.7-22.6,2.6-29.7,9.4
	c-2.3,2.1-2.8,4.9-2.8,7.7c0,5.5,2.8,10.9,2.8,14.9c0,1.2-1.1,2.2-2.8,2.2c-3.8,0-19.8-10.5-29.8-10.5c-6.1,0-16.5,8.3-20.3,11.1
	c-11.6,8.2-38.6,30.9-57.8,45.7c-1.7,1.6-6,6.2-10.4,8.8c-2.7,2.2-5.5,0-2.2-3.9c4.9-6.6,11-17,13.2-20.9
	c7.7-11.4,14.8-23.1,21.4-35.1c2.2-2.7,6.6-8.8,6.6-12.1c0-8.8-26.4,0-26.4-7.7c0-3.9,11-5,11-10.1c0-2.2-3.8-3.3-7.7-3.7
	c-4.9-1.1-21.4-3.4-26.4-4.5L6,145.6c-3.3,0-6-1-6-2.6c0-3.8,14.3-4.4,16.5-4.4c19.3-2.2,38-4.4,57.3-6c1.1,0,17.1-1.7,19.2-2.8
	c3.9-2.3,5.1-11,6.7-16.6c0-1.6,0.6-3.8,2.2-3.8c1.1,0,4.4,1.7,5.5,2.3c6.1,2.3,14.9,6.1,19.9,6.1c2.7,0,3.9-1.2,11-7.2
	c10.4-10,20.3-18.1,34.6-29.8c4.4-3.8,8.3-7.1,11.1-8.8c1-0.6,2.6-1.1,2.6-1.1c1.7,0,2.3,0.5,2.3,2.2c0,3.9-24.9,43.5-24.9,48.5
	c0,1,1.1,2.2,2.3,2.2c3.9,0,8.3-0.5,13.7-1.2c2.2,0,8.3-1.6,12.2-1.6c0.5,0,2.2,1.1,1.1,3.3c-1.1,2.2-5.5,7.7-9.3,11.1
	c-0.7,0.6,0,0.6,0.5,1l59.4,9.2c4.4,0.6,9.4,1.1,13.8,1.8c0.6,0.5,0.6,1.1,0.6,1.6C258.2,150.6,255.4,150.6,254.3,151.1 M238.3,199
	c-30.8,33.6-75.4,48.5-117.8,48.5c-8.9,0-33.1,0-37.5-2.3c-1.1-0.5-1.6-1.6-1.6-2.6c0,0,0-1.2,1.6-2.3c1.7-2.2,19.2-17.1,21-18.2
	c3.2-3.3,4.9-3.9,11.5-3.9c17,0,44.6-5.4,60-12.7c12.6-5.5,25.3-16.9,34.7-27.4c2.1-2.3,6-7.1,8.1-8.8c0.6-0.6,2.8-1.1,3.3-1.7
	c10.5-1.6,16.5-2.7,27.1-5c4.3-0.9,6-0.9,7.7-0.9c0.6,0,1.7,0.9,1.7,3.2C258.2,172.1,243.8,193.1,238.3,199 M56.2,210.8
	c-2.3,4.8-8.8,16.8-12.7,21.3c-0.6,1.1-1.6,1.1-2.1,1.1h-2.8c-4.9-1.6-10.4-5-14.2-8.3C9.3,213.3,1.7,201.2,1.7,182
	c0-6.8,1.1-15.9,3.3-20.3c1.1-2.9,5-1.7,7.7-1.7c4.3,0,17.6,1.7,19.2,2.1c1.7,0.5,2.8,1.2,2.8,2.8c0,2.7-1.1,4.9-1.1,7.8
	c0,12.7,7.1,26.3,19.8,31.9c2.7,1,3.8,1.6,3.8,3.3C57.3,207.9,57.3,209,56.2,210.8 M226.3,103.9c-1.1,0-1.7,1.6,0,3.8
	c5.5,6.6,6.6,17,12.1,18.1c12.1,2.2,9.9-4.9,4.4-11.5C238.3,109.3,230,104.4,226.3,103.9 M166.8,138.5c-2.9,0-8.9,2.8-13.2,4.9
	c-2.2,1.1-3.3,2.1-1.7,2.1c3.3,0,56.1,1.8,61.1,1.1c5,0,13.2-1.1,6.6-1.6C213,144,182.2,140.1,166.8,138.5 M167.3,89.5
	c-3.8,3.3-24.8,21.5-31.9,29.2c-1,1.5,0.6,9.3,1.7,11.5c0.5,1.7,1.7,1.7,2.2,1.1c1.1-2.2,30.3-39.6,31.9-43.4
	C171.8,86.2,170.6,86.2,167.3,89.5 M217.4,184.2c-6.1,7.7-15.4,17-24.2,22.6c-11.6,6.5-24.2,12.1-37.5,16.5c-1.1,0.5-1.6,0.5-2.1,1
	c-2.7,1.2-2.7,3.3,8.8,1.7c15.4-2.2,34.1-8.2,45.6-15.2c13.8-9,33.6-24.4,24.8-31C228.5,176.5,221.3,178.8,217.4,184.2 M128.3,135.9
	c-5,0-10.5,2.1-10.5,7.6c0,5.1,5,7.2,9.3,7.2c4.4,0,11-2.7,11-7.7C138.2,138,132.1,135.9,128.3,135.9 M32.5,142.5
	c-2.2,0.5-1.7,1.5,4.9,2.1c6.6,1,38,5.5,52.8,7.2c5,0.5,10.5-3.9,14.3-6.6c2.3-1.1,3.9-2.6,2.8-2.6
	C104.1,142.5,37.4,141.3,32.5,142.5 M121.7,161.1c-1.7,2.7-40.8,49-43,53.5c-1.1,1.7-0.6,2.1,3.9-0.5c6.1-5,29.7-25.3,40.8-35.8
	c3.3-3.4,2.2-8.8,1.1-12.7C123.8,162.7,122.8,160,121.7,161.1"/>
</svg>
