<?xml version="1.0" encoding="utf-8"?>
<!-- Generator: Adobe Illustrator 23.0.1, SVG Export Plug-In . SVG Version: 6.00 Build 0)  -->
<svg version="1.1"
	 id="svg6103" inkscape:version="0.92.3 (2405546, 2018-03-11)" sodipodi:docname="MetroLisboa-linha-amarela(!).svg" xmlns:cc="http://creativecommons.org/ns#" xmlns:dc="http://purl.org/dc/elements/1.1/" xmlns:inkscape="http://www.inkscape.org/namespaces/inkscape" xmlns:rdf="http://www.w3.org/1999/02/22-rdf-syntax-ns#" xmlns:sodipodi="http://sodipodi.sourceforge.net/DTD/sodipodi-0.dtd" xmlns:svg="http://www.w3.org/2000/svg"
	 xmlns="http://www.w3.org/2000/svg" xmlns:xlink="http://www.w3.org/1999/xlink" x="0px" y="0px" viewBox="0 0 195.1 250"
	 enable-background="new 0 0 195.1 250" xml:space="preserve">
<path fill="#F7A800" d="M128.5,49.4c-5.6,0-10.7-4.3-10.7-10.4c0-6.9,9.3-11.6,15.8-11.6h3.3c1.9,0,5.5-1,7.4-1.5
	c0.9-0.4,1.9-0.9,1.9-0.9c2.3,0,2.3,4.2,2.3,5.7C148.5,41,137.8,49.4,128.5,49.4 M108,34.5c-5.6,0-11.1-4.7-11.1-10.2
	c0-5.7,4.2-8.9,8.8-11.7c3.3-1.9,5.6-3.3,8.4-6.5c0.4-1.1,0.9-2.4,2.3-2.4c3.3,0,6.5,10.2,6.5,13C122.9,25.1,116.4,34.5,108,34.5
	 M153.6,71.7c-1.3,0-3.2-1.9-6-1.9c-5.6,0-10.3,4.2-15.4,4.2c-5.1,0-9.7-4.2-9.7-9.3c0-7.9,5.1-13.9,13.5-13.9
	c3.7,0,8.4,0.9,11.6,3.7c4.2,2.7,7.4,9.8,7.4,14.8C155.1,69.8,155.1,71.7,153.6,71.7 M80.6,32.1c-5.6,0-11.2-4.6-11.2-11.2
	c0-5.5,3.7-9.8,7-13.9c0.9-1.5,1.9-4.3,2.8-6.1c0-0.5,0.4-1,0.9-1c1.3,0,2.7,1,3.7,1.9C88.9,6.1,92.2,13,92.2,20
	C92.2,26.5,87.6,32.1,80.6,32.1 M144.3,102.5c-2.3,0-2.3-1.9-7.4-1.9c-4.7,0-8.8,2.3-13.5,2.3c-5.6,0-10.7-4.2-10.7-9.8
	c0-7.5,6.1-11.6,12.6-11.6c10.2,0,21,8.3,21,19C146.2,101.9,145.3,102.5,144.3,102.5 M50.3,42.3c-10.2,0-13-10.1-13-18.5
	c0-4.2-0.9-5.2-0.9-8c0-0.4,0.4-1.4,1.4-1.4c1.9,0,4.6,1,6.9,1.4c8.4,1.4,16.8,4.2,16.8,14.4C61.5,36.8,57.3,42.3,50.3,42.3
	 M190.8,156c-0.9,2.3-4.2,11.1-4.2,13v1.9c0,1-0.4,1.8-1.4,1.8c-7.4,0,0-15.8-11.7-15.8c-8.4,0-15.4,12.2-25.6,12.2
	c-6.9,0-11.1-4.7-11.1-11.6c0-2.8,0.5-5.6,0.5-8.5c0-0.4,0-0.9-0.5-0.9c-5.1,0-12.6,21.3-13.5,26.1c0,0.5-0.5,1.9-1.4,1.9
	c-1.8,0-1.8-1.9-1.8-3.3c0-17.2,6.9-34.9,20.4-46.6c6.6-5.5,13.5-7.9,22.3-8.8c0.5,0,1.4,0,1.4-0.9c0-1.4-3.3-1.4-4.1-1.4
	c-14.4,0-23.8,10.8-24.7,10.8c0,0-0.5-0.5-0.9-0.5v-1c6-14,18.1-25.1,34-25.1c20.4,0,26.5,20.5,26.5,37.2
	C195.1,142.8,193.7,149.4,190.8,156 M72.6,108.9c-17.2,0-32.6-11.6-32.6-29.8c0-16.8,10.7-31.7,25.6-39.1c2.3-1,7.5-3.3,10.2-3.3
	c0.9,0,2.3,0,2.3,0.9c0,1.4-2.3,2-3.7,2.4c-6.1,2.3-14.4,8.8-14.4,16.4c0,5,4.2,6.9,8.8,6.9c9.3,0,21.5-6.5,21.5-16.8
	c0-6.9-7-7.4-7-9.3c0-1.9,7.5-1.4,8.4-1.4c17.3,0,27.5,10.7,27.5,27.5C119.2,88.5,97.3,108.9,72.6,108.9 M113.1,135.9
	c-1.3,0-1.9-0.9-1.9-1.9c-0.9-3.8-4.7-6.1-7.8-6.9c-6.1-2.9-12.1-4.7-12.1-12.2c0-7.4,7.5-11.2,14-11.2c9.3,0,13.5,7.5,13.5,15.9
	C118.8,122.9,116.4,135.9,113.1,135.9 M30.7,63.7c-11.1,0-20.5-11.5-20.5-21.9c0-0.9,0.4-1.8,1.4-1.8c1.4,0,4.6,3.2,8.9,3.2
	c3.7,0,7.4-1,11.2-1c6.5,0,11.7,3.8,11.7,10.3C43.4,60,37.8,63.7,30.7,63.7 M79.2,142.4c-1.4,1-5.2,4.7-7,4.7
	c-2.3,0-1.4-1.9-1.4-3.3c0-7.4-8.4-10.2-8.4-18.6c0-7.5,6.5-12.1,13.5-12.1c7,0,11.7,4.6,11.7,11.7
	C87.6,131.4,83.3,137.8,79.2,142.4 M19.6,89.8c-7.5,0-12.1-2.8-17.7-7.4c-0.5,0-1.9-0.9-1.9-1.8C0,80,1,80,1,79.5
	c2.3-0.4,4.2-1.3,5.6-2.7c5.1-4.2,10.2-8,16.8-8c5.6,0,11.1,3.3,11.1,9.4C34.5,86.1,26.5,89.8,19.6,89.8 M37.8,138.2
	c-1.9,0-4.2-0.4-4.2-1.9c0-0.9,3.2-5,3.2-9.2c1-8.4,1-19.1,12.2-19.1c6.9,0,11.2,6,11.2,12.1C60.1,129.9,46.6,138.2,37.8,138.2
	 M22.4,117.3c-2.4,0-14-1.9-14-4.7c0-1,1-1,1.4-1.4c2.3-1,4.2-4.2,5.6-6.5c3.2-5.6,7.4-12.1,14.9-12.1c5.6,0,9.8,3.8,9.8,9.8
	C40.1,111.6,30.7,117.3,22.4,117.3 M119.2,239.2c0,4.3-0.5,10.8-6.1,10.8c-4.1,0-7.4-3.2-7.4-7.5c0-3.3,0.9-7.5,1.4-11.2
	c1.9-11.6,3.8-24.2,3.8-35.8c0-14-11.2-32.6-26.6-32.6c-11.2,0-18.6,8.9-18.6,20.1c0,5.6,3.3,16.3,10.7,16.3c0.9,0,2.3-0.5,2.8-1.3
	c-5.2-1.9-8.9-7.6-8.9-13.2c0-7.9,6.5-12.9,14-12.9c9.8,0,15.4,7.9,15.4,16.7c0,16.7-15.8,25.2-30.7,25.2c-15.3,0-28.4-10.3-28.4-27
	c0-8.8,3.7-18.2,10.2-24.7c5.6-5.2,16.8-10.7,24.2-10.7c0.9,0,2.3,0.5,2.3,1.4c0,1.3-7.4,4.6-8.8,5.1c-2.4,1.3-6.5,4.6-9.3,7.5
	c-4.7,5.5-7.4,12.1-7.4,19c0,3.2,1.3,10.2,6.1,10.2c3.7,0,3.2-4.2,3.2-6.4c0.6-5.6,0-10.7,2.4-16.2c3.7-10.3,14.9-17.8,26.1-17.8
	c17.7,0,25.6,20.5,27.9,35.4c2.4,12.5,2.4,25.6,2.4,38.5C119.7,231.8,119.2,235.5,119.2,239.2"/>
</svg>
